<mxfile host="app.diagrams.net" modified="2023-12-04T18:45:57.118Z" agent="Mozilla/5.0 (Windows NT 10.0; Win64; x64) AppleWebKit/537.36 (KHTML, like Gecko) Chrome/116.0.5845.686 YaBrowser/23.9.5.686 Yowser/2.5 Safari/537.36" etag="NFmMIx07we0VxMk0-2UL" version="22.1.5" type="device">
  <diagram name="Страница — 1" id="0Hg9JdnEb_OBUSHEmZGM">
    <mxGraphModel dx="746" dy="465" grid="0" gridSize="10" guides="1" tooltips="1" connect="1" arrows="1" fold="1" page="1" pageScale="1" pageWidth="827" pageHeight="1169" math="0" shadow="0">
      <root>
        <mxCell id="0" />
        <mxCell id="1" parent="0" />
        <mxCell id="vSdlGgXXjVl9V2SeEeya-1" value="" style="rounded=0;whiteSpace=wrap;html=1;" parent="1" vertex="1">
          <mxGeometry x="151" y="204" width="451" height="357" as="geometry" />
        </mxCell>
        <mxCell id="vSdlGgXXjVl9V2SeEeya-2" value="Minikube" style="text;html=1;strokeColor=none;fillColor=none;align=center;verticalAlign=middle;whiteSpace=wrap;rounded=0;" parent="1" vertex="1">
          <mxGeometry x="537" y="214" width="60" height="30" as="geometry" />
        </mxCell>
        <mxCell id="vSdlGgXXjVl9V2SeEeya-3" value="" style="rounded=0;whiteSpace=wrap;html=1;" parent="1" vertex="1">
          <mxGeometry x="189" y="355" width="113" height="140" as="geometry" />
        </mxCell>
        <mxCell id="vSdlGgXXjVl9V2SeEeya-5" value="" style="rounded=0;whiteSpace=wrap;html=1;" parent="1" vertex="1">
          <mxGeometry x="206" y="399" width="83" height="65" as="geometry" />
        </mxCell>
        <mxCell id="vSdlGgXXjVl9V2SeEeya-7" value="" style="rounded=0;whiteSpace=wrap;html=1;" parent="1" vertex="1">
          <mxGeometry x="283" y="233" width="90" height="40" as="geometry" />
        </mxCell>
        <mxCell id="vSdlGgXXjVl9V2SeEeya-9" value="Service" style="text;html=1;strokeColor=none;fillColor=none;align=center;verticalAlign=middle;whiteSpace=wrap;rounded=0;" parent="1" vertex="1">
          <mxGeometry x="298" y="238" width="60" height="30" as="geometry" />
        </mxCell>
        <mxCell id="vSdlGgXXjVl9V2SeEeya-10" value="" style="endArrow=none;html=1;rounded=0;endFill=0;" parent="1" edge="1">
          <mxGeometry width="50" height="50" relative="1" as="geometry">
            <mxPoint x="329" y="126" as="sourcePoint" />
            <mxPoint x="327" y="233" as="targetPoint" />
          </mxGeometry>
        </mxCell>
        <mxCell id="tojs1yxZOvhxcuwdjAfg-11" value="" style="endArrow=none;html=1;rounded=0;entryX=0.5;entryY=1;entryDx=0;entryDy=0;" parent="1" target="vSdlGgXXjVl9V2SeEeya-7" edge="1">
          <mxGeometry width="50" height="50" relative="1" as="geometry">
            <mxPoint x="251" y="354" as="sourcePoint" />
            <mxPoint x="409" y="319" as="targetPoint" />
          </mxGeometry>
        </mxCell>
        <mxCell id="tojs1yxZOvhxcuwdjAfg-12" value="" style="endArrow=none;html=1;rounded=0;entryX=0.5;entryY=1;entryDx=0;entryDy=0;exitX=0.59;exitY=-0.002;exitDx=0;exitDy=0;exitPerimeter=0;" parent="1" target="vSdlGgXXjVl9V2SeEeya-7" edge="1">
          <mxGeometry width="50" height="50" relative="1" as="geometry">
            <mxPoint x="486.4000000000001" y="354.72" as="sourcePoint" />
            <mxPoint x="335" y="319" as="targetPoint" />
          </mxGeometry>
        </mxCell>
        <mxCell id="YXQh-ptBu56VZDfGpMUj-1" value="" style="rounded=0;whiteSpace=wrap;html=1;" vertex="1" parent="1">
          <mxGeometry x="431" y="355" width="113" height="140" as="geometry" />
        </mxCell>
        <mxCell id="n4AyjgU9SirsRX-FSnZF-12" value="Node2" style="text;html=1;strokeColor=none;fillColor=none;align=center;verticalAlign=middle;whiteSpace=wrap;rounded=0;" parent="1" vertex="1">
          <mxGeometry x="457.5" y="359" width="60" height="30" as="geometry" />
        </mxCell>
        <mxCell id="YXQh-ptBu56VZDfGpMUj-2" value="Node1" style="text;html=1;strokeColor=none;fillColor=none;align=center;verticalAlign=middle;whiteSpace=wrap;rounded=0;" vertex="1" parent="1">
          <mxGeometry x="215.5" y="361" width="60" height="30" as="geometry" />
        </mxCell>
        <mxCell id="YXQh-ptBu56VZDfGpMUj-3" value="" style="rounded=0;whiteSpace=wrap;html=1;" vertex="1" parent="1">
          <mxGeometry x="446" y="402" width="83" height="65" as="geometry" />
        </mxCell>
        <mxCell id="n4AyjgU9SirsRX-FSnZF-11" value="Pod" style="text;html=1;strokeColor=none;fillColor=none;align=center;verticalAlign=middle;whiteSpace=wrap;rounded=0;" parent="1" vertex="1">
          <mxGeometry x="457.5" y="419.5" width="60" height="30" as="geometry" />
        </mxCell>
        <mxCell id="YXQh-ptBu56VZDfGpMUj-4" value="Pod" style="text;html=1;strokeColor=none;fillColor=none;align=center;verticalAlign=middle;whiteSpace=wrap;rounded=0;" vertex="1" parent="1">
          <mxGeometry x="215.5" y="416.5" width="60" height="30" as="geometry" />
        </mxCell>
        <mxCell id="YXQh-ptBu56VZDfGpMUj-5" value="port-forward" style="text;html=1;strokeColor=none;fillColor=none;align=center;verticalAlign=middle;whiteSpace=wrap;rounded=0;" vertex="1" parent="1">
          <mxGeometry x="327" y="166" width="60" height="30" as="geometry" />
        </mxCell>
      </root>
    </mxGraphModel>
  </diagram>
</mxfile>
